<svg xmlns="http://www.w3.org/2000/svg"  viewBox="0 0 60 60" width="60px" height="60px"><path d="M 33.371094 7.0039062 C 28.155094 7.0599062 22.943719 7.3854687 17.761719 7.9804688 C 16.448719 8.1314687 15.137125 8.3004219 13.828125 8.4824219 C 13.704125 8.4994219 13.596953 8.5510469 13.501953 8.6230469 C 13.376953 8.6420469 13.246234 8.6884844 13.115234 8.7714844 C 11.368234 9.8824844 10.944172 11.917563 10.826172 13.851562 C 10.669172 16.420562 10.62725 19.002219 10.53125 21.574219 C 10.43425 24.187219 10.303844 26.802969 10.339844 29.417969 C 10.374844 31.997969 10.622672 34.565234 11.013672 37.115234 C 11.394672 39.601234 11.919625 42.063859 12.515625 44.505859 C 12.818625 45.748859 13.141656 46.985703 13.472656 48.220703 C 13.762656 49.303703 13.939734 50.624719 14.677734 51.511719 C 15.378734 52.353719 16.576984 52.690812 17.583984 53.007812 C 18.713984 53.363813 19.877781 53.605578 21.050781 53.767578 C 23.407781 54.093578 25.78425 54.104031 28.15625 53.957031 C 33.25425 53.642031 38.346062 52.935547 43.414062 52.310547 C 44.739063 52.147547 46.067672 51.997594 47.388672 51.808594 C 48.619672 51.631594 49.311297 50.861047 49.404297 49.623047 C 49.593297 47.102047 49.022016 44.531672 48.916016 42.013672 C 48.696016 36.800672 49.030156 31.543078 49.160156 26.330078 C 49.225156 23.710078 49.292422 21.08975 49.357422 18.46875 C 49.372422 17.85675 49.528234 17.048078 49.365234 16.455078 C 49.223234 15.939078 48.610672 15.420297 48.263672 15.029297 C 47.498672 14.167297 46.698281 13.338922 45.863281 12.544922 C 44.184281 10.948922 42.364313 9.4923125 40.445312 8.1953125 C 39.394312 7.4843125 38.479453 7.0406719 37.189453 7.0136719 C 35.917453 6.9876719 34.644094 6.9909063 33.371094 7.0039062 z M 33.054688 9.0097656 C 34.305313 8.9943906 35.556141 8.9952187 36.806641 9.0117188 C 36.407641 10.792719 36.008375 12.572516 35.609375 14.353516 C 35.360375 15.464516 35.108281 16.5755 34.863281 17.6875 C 34.665281 18.5865 34.617594 19.604469 35.558594 20.105469 C 36.366594 20.534469 37.457656 20.564016 38.347656 20.666016 C 39.395656 20.786016 40.453813 20.829922 41.507812 20.794922 C 43.471812 20.730922 45.427547 20.405703 47.310547 19.845703 C 47.133547 26.138703 46.916234 32.435516 46.865234 38.728516 C 46.850234 40.511516 46.888875 42.295266 47.046875 44.072266 C 47.201875 45.815266 47.456156 47.560453 47.410156 49.314453 C 47.405156 49.662453 47.472938 49.702219 47.210938 49.824219 C 46.931937 49.955219 46.431766 49.932703 46.134766 49.970703 C 45.145766 50.096703 44.156969 50.220797 43.167969 50.341797 C 41.353969 50.564797 39.538656 50.781234 37.722656 50.990234 C 34.280656 51.386234 30.826281 51.838953 27.363281 52.001953 C 24.106281 52.155953 20.800406 52.002453 17.691406 50.939453 C 17.185406 50.766453 16.458578 50.613531 16.142578 50.144531 C 15.936578 49.838531 15.871391 49.427125 15.775391 49.078125 C 15.648391 48.616125 15.524391 48.153406 15.400391 47.691406 C 14.945391 45.992406 14.507328 44.288219 14.111328 42.574219 C 13.324328 39.165219 12.697125 35.715656 12.453125 32.222656 C 12.171125 28.184656 12.436891 24.123937 12.587891 20.085938 C 12.662891 18.066937 12.709453 16.046297 12.814453 14.029297 C 12.877453 12.823297 12.997047 11.218953 14.123047 10.501953 C 14.165047 10.474953 14.200328 10.442109 14.236328 10.412109 C 14.278328 10.410109 14.318375 10.418109 14.359375 10.412109 C 19.314375 9.7241094 24.305688 9.2905156 29.304688 9.1035156 C 30.554688 9.0565156 31.804062 9.0251406 33.054688 9.0097656 z M 16.738281 12.404297 C 16.346266 12.456656 15.959625 12.721797 15.890625 13.123047 C 15.488625 15.450047 15.29575 17.807922 15.34375 20.169922 C 15.35475 20.709922 15.79575 21.169922 16.34375 21.169922 C 16.87775 21.169922 17.35475 20.711922 17.34375 20.169922 C 17.29975 17.984922 17.451313 15.79325 17.820312 13.65625 C 17.911313 13.12425 17.678094 12.578781 17.121094 12.425781 C 17.000844 12.392781 16.868953 12.386844 16.738281 12.404297 z"/></svg>